<svg xmlns="http://www.w3.org/2000/svg" viewBox="0 0 40 40"><g id="Camada_2" data-name="Camada 2"><g id="Camada_1-2" data-name="Camada 1"><path d="M20,0A20,20,0,1,0,40,20,20,20,0,0,0,20,0ZM14,11.36l.53-1.08a.5.5,0,0,1,.9,0l.54,1.08a.47.47,0,0,0,.37.27l1.19.18a.49.49,0,0,1,.28.85l-.86.84a.49.49,0,0,0-.14.44l.2,1.19a.5.5,0,0,1-.73.53l-1.06-.56a.49.49,0,0,0-.47,0l-1.06.56a.5.5,0,0,1-.73-.53l.2-1.19A.49.49,0,0,0,13,13.5l-.86-.84a.5.5,0,0,1,.27-.85l1.19-.18A.47.47,0,0,0,14,11.36ZM7.45,6.64l.6-.09.59-.08A.53.53,0,0,0,9,6.2l.35-.71.18-.37a.5.5,0,0,1,.67-.22.45.45,0,0,1,.23.22L11,6.2a.53.53,0,0,0,.38.27l1.19.17a.51.51,0,0,1,.28.86L12,8.34a.49.49,0,0,0-.15.44L12,10a.5.5,0,0,1-.73.53l-1.07-.56a.47.47,0,0,0-.46,0L8.7,10.5A.5.5,0,0,1,8,10l.21-1.19A.49.49,0,0,0,8,8.34L7.17,7.5l0-.06A.5.5,0,0,1,7.45,6.64ZM3.91,14.83l1.19-.17a.49.49,0,0,0,.38-.27L6,13.31a.5.5,0,0,1,.9,0l.54,1.08a.49.49,0,0,0,.37.27L9,14.83a.5.5,0,0,1,.28.86l-.86.84a.48.48,0,0,0-.14.44l.2,1.19a.5.5,0,0,1-.73.53L6.7,18.13a.49.49,0,0,0-.47,0l-1.06.56a.5.5,0,0,1-.73-.53L4.64,17a.48.48,0,0,0-.14-.44l-.86-.84A.5.5,0,0,1,3.91,14.83ZM20,38A17.94,17.94,0,0,1,5.77,31H34.23A18,18,0,0,1,20,38Zm0-18V9H34.23A17.89,17.89,0,0,1,38,20Z" style="fill:#20134b"/></g></g></svg>