<svg xmlns="http://www.w3.org/2000/svg" viewBox="0 0 40 40"><g id="Camada_2" data-name="Camada 2"><g id="Camada_1-2" data-name="Camada 1"><g id="Camada_2-2" data-name="Camada 2"><g id="Camada_1-2-2" data-name="Camada 1-2"><circle cx="20" cy="20" r="18" style="fill:#6e56cf"/><path d="M20,0A20,20,0,1,0,40,20,20,20,0,0,0,20,0Zm0,2A18,18,0,0,1,37.94,18.5L20.52,6.86a1,1,0,0,0-1,0L2.06,18.5A18,18,0,0,1,20,2ZM15.52,12.66A8.6,8.6,0,0,1,27.34,24.48Zm9,14.68A8.6,8.6,0,0,1,12.66,15.52ZM20,38A18,18,0,0,1,2.06,21.5L19.48,33.14a1,1,0,0,0,1,0L37.94,21.5A18,18,0,0,1,20,38Z" style="fill:#fdfcfe"/></g></g><circle cx="20" cy="20" r="18.96" style="fill:none;stroke:#20134b;stroke-miterlimit:10;stroke-width:2px"/></g></g></svg>