<svg xmlns="http://www.w3.org/2000/svg" viewBox="0 0 40 40"><g id="Camada_2" data-name="Camada 2"><g id="Camada_1-2" data-name="Camada 1"><g id="Camada_2-2" data-name="Camada 2"><g id="Camada_1-2-2" data-name="Camada 1-2"><circle cx="20" cy="20" r="19.5" style="fill:#6e56cf"/><path d="M20,0A20,20,0,1,0,40,20,20,20,0,0,0,20,0ZM14,11.36l.53-1.08a.5.5,0,0,1,.67-.23.51.51,0,0,1,.23.23L16,11.36a.47.47,0,0,0,.37.27l1.19.18a.49.49,0,0,1,.44.54.47.47,0,0,1-.16.31L17,13.5a.48.48,0,0,0-.14.44l.2,1.19a.5.5,0,0,1-.4.58.54.54,0,0,1-.33-.05l-1.06-.56a.49.49,0,0,0-.47,0l-1.06.56a.51.51,0,0,1-.68-.2.54.54,0,0,1,0-.33l.2-1.19A.52.52,0,0,0,13,13.5l-.86-.84a.5.5,0,0,1,0-.71.62.62,0,0,1,.28-.14l1.19-.18A.46.46,0,0,0,14,11.36ZM7.45,6.64l.6-.09.59-.08A.52.52,0,0,0,9,6.2l.35-.71.18-.37a.5.5,0,0,1,.67-.22.45.45,0,0,1,.23.22L11,6.2a.56.56,0,0,0,.38.27l1.19.17a.51.51,0,0,1,.42.59.54.54,0,0,1-.14.27L12,8.34a.49.49,0,0,0-.15.44L12,10a.5.5,0,0,1-.4.58.54.54,0,0,1-.33-.05L10.2,10a.47.47,0,0,0-.46,0l-1,.53A.5.5,0,0,1,8,10.24.49.49,0,0,1,8,10l.21-1.19A.51.51,0,0,0,8,8.34L7.17,7.5V7.44a.49.49,0,0,1,.08-.7A.54.54,0,0,1,7.45,6.64ZM3.91,14.83l1.19-.17a.49.49,0,0,0,.38-.27L6,13.31a.5.5,0,0,1,.67-.23.51.51,0,0,1,.23.23l.54,1.08a.47.47,0,0,0,.37.27L9,14.83a.49.49,0,0,1,.43.56.51.51,0,0,1-.15.3l-.86.84a.48.48,0,0,0-.14.44l.2,1.19a.5.5,0,0,1-.4.58.54.54,0,0,1-.33,0l-1-.56a.49.49,0,0,0-.47,0l-1.06.56a.51.51,0,0,1-.68-.2.54.54,0,0,1,0-.33L4.64,17a.48.48,0,0,0-.14-.44l-.86-.84a.5.5,0,0,1,.27-.89ZM20,38A18,18,0,0,1,5.77,31H34.23A18,18,0,0,1,20,38Zm0-18V9H34.23A17.89,17.89,0,0,1,38,20Z" style="fill:#fdfcfe"/></g></g><circle cx="20" cy="20" r="18.96" style="fill:none;stroke:#20134b;stroke-miterlimit:10;stroke-width:2px"/></g></g></svg>